<svg width="88" height="83" viewBox="0 0 88 83" fill="none" xmlns="http://www.w3.org/2000/svg">
<path d="M38.7721 71.3281C56.6166 71.3281 71.0824 56.8124 71.0824 38.9062C71.0824 21.0001 56.6166 6.48438 38.7721 6.48438C20.9277 6.48438 6.46191 21.0001 6.46191 38.9062C6.46191 56.8124 20.9277 71.3281 38.7721 71.3281Z" fill="#D9D9D9" stroke="#D9D9D9" stroke-width="2" stroke-linecap="round" stroke-linejoin="round"/>
<path d="M38.7727 45.3906C45.9105 45.3906 51.6968 39.5843 51.6968 32.4219C51.6968 25.2594 45.9105 19.4531 38.7727 19.4531C31.6349 19.4531 25.8486 25.2594 25.8486 32.4219C25.8486 39.5843 31.6349 45.3906 38.7727 45.3906Z" fill="white" stroke="white" stroke-width="2" stroke-linecap="round" stroke-linejoin="round"/>
<path d="M58.158 64.6685C58.158 58.6725 56.1156 52.9222 52.48 48.6824C48.8443 44.4427 43.9134 42.0608 38.7719 42.0608C33.6304 42.0608 28.6994 44.4427 25.0638 48.6824C21.4282 52.9222 19.3857 58.6725 19.3857 64.6685" fill="white"/>
<path d="M58.158 64.6685C58.158 58.6725 56.1156 52.9222 52.48 48.6824C48.8443 44.4427 43.9134 42.0608 38.7719 42.0608C33.6304 42.0608 28.6994 44.4427 25.0638 48.6824C21.4282 52.9222 19.3857 58.6725 19.3857 64.6685" stroke="white" stroke-width="2" stroke-linecap="round" stroke-linejoin="round"/>
<path d="M19.1094 64.9313V64.6685H57.8817H58.7125L50.4041 69.6632L44.0344 70.9776L37.3877 71.5033L32.6797 70.9776L27.6947 69.6632L23.2635 67.5601L19.1094 64.9313Z" fill="white" stroke="white"/>
</svg>
